<svg width="22" height="22" viewBox="0 0 22 22" fill="none" xmlns="http://www.w3.org/2000/svg">
<path d="M20.8679 15.3819H5.49156C5.20027 15.3819 4.92091 15.2662 4.71494 15.0601C4.50897 14.8541 4.39325 14.5746 4.39325 14.2832C4.39325 13.9918 4.50897 13.7123 4.71494 13.5063C4.92091 13.3003 5.20027 13.1845 5.49156 13.1845H16.958C17.6923 13.1845 18.4057 12.9391 18.9847 12.4873C19.5638 12.0354 19.9753 11.403 20.154 10.6904L21.9663 3.55981C22.0074 3.39765 22.011 3.22824 21.9767 3.06448C21.9424 2.90073 21.8713 2.74697 21.7686 2.61492C21.6617 2.47949 21.5246 2.37112 21.3681 2.29858C21.2116 2.22605 21.0403 2.19139 20.8679 2.19742H5.22797C5.00137 1.55627 4.58208 1.00092 4.02758 0.607518C3.47309 0.214115 2.81052 0.00191121 2.13073 0H1.09831C0.807022 0 0.527662 0.115756 0.321688 0.321804C0.115715 0.527852 0 0.807312 0 1.09871C0 1.3901 0.115715 1.66956 0.321688 1.87561C0.527662 2.08166 0.807022 2.19742 1.09831 2.19742H2.13073C2.38162 2.1901 2.62745 2.26898 2.82728 2.42091C3.02712 2.57284 3.16891 2.78866 3.22904 3.03243L3.29494 3.55981L5.19502 10.9871C4.32115 11.0264 3.49869 11.4114 2.90857 12.0574C2.31846 12.7033 2.00903 13.5573 2.04835 14.4315C2.08768 15.3057 2.47254 16.1285 3.11826 16.7188C3.76399 17.3091 4.61769 17.6187 5.49156 17.5793H5.68926C5.50863 18.0772 5.45058 18.6113 5.52004 19.1363C5.5895 19.6614 5.78442 20.162 6.0883 20.5957C6.39217 21.0294 6.79605 21.3835 7.26573 21.6279C7.73541 21.8724 8.25706 22 8.7865 22C9.31595 22 9.8376 21.8724 10.3073 21.6279C10.777 21.3835 11.1808 21.0294 11.4847 20.5957C11.7886 20.162 11.9835 19.6614 12.053 19.1363C12.1224 18.6113 12.0644 18.0772 11.8837 17.5793H14.4758C14.2951 18.0772 14.2371 18.6113 14.3065 19.1363C14.376 19.6614 14.5709 20.162 14.8748 20.5957C15.1787 21.0294 15.5826 21.3835 16.0522 21.6279C16.5219 21.8724 17.0436 22 17.573 22C18.1025 22 18.6241 21.8724 19.0938 21.6279C19.5635 21.3835 19.9673 21.0294 20.2712 20.5957C20.5751 20.162 20.77 19.6614 20.8395 19.1363C20.9089 18.6113 20.8509 18.0772 20.6702 17.5793H20.8679C21.1592 17.5793 21.4386 17.4636 21.6446 17.2575C21.8505 17.0515 21.9663 16.772 21.9663 16.4806C21.9663 16.1892 21.8505 15.9098 21.6446 15.7037C21.4386 15.4977 21.1592 15.3819 20.8679 15.3819ZM19.4621 4.39483L18.0233 10.1521C17.9632 10.3958 17.8214 10.6117 17.6216 10.7636C17.4217 10.9155 17.1759 10.9944 16.925 10.9871H7.44656L5.79909 4.39483H19.4621ZM8.7865 19.7767C8.56928 19.7767 8.35693 19.7123 8.17631 19.5916C7.9957 19.4708 7.85492 19.2993 7.77179 19.0985C7.68867 18.8977 7.66691 18.6768 7.70929 18.4637C7.75167 18.2506 7.85628 18.0548 8.00988 17.9011C8.16348 17.7475 8.35918 17.6428 8.57223 17.6004C8.78528 17.558 9.00612 17.5798 9.20681 17.663C9.4075 17.7461 9.57903 17.8869 9.69972 18.0676C9.8204 18.2483 9.88482 18.4607 9.88482 18.678C9.88482 18.9694 9.7691 19.2489 9.56313 19.4549C9.35715 19.661 9.07779 19.7767 8.7865 19.7767ZM17.573 19.7767C17.3558 19.7767 17.1434 19.7123 16.9628 19.5916C16.7822 19.4708 16.6414 19.2993 16.5583 19.0985C16.4752 18.8977 16.4534 18.6768 16.4958 18.4637C16.5382 18.2506 16.6428 18.0548 16.7964 17.9011C16.95 17.7475 17.1457 17.6428 17.3587 17.6004C17.5718 17.558 17.7926 17.5798 17.9933 17.663C18.194 17.7461 18.3655 17.8869 18.4862 18.0676C18.6069 18.2483 18.6713 18.4607 18.6713 18.678C18.6713 18.9694 18.5556 19.2489 18.3496 19.4549C18.1437 19.661 17.8643 19.7767 17.573 19.7767Z" fill="white"/>
</svg>
